<?xml version="1.0" encoding="utf-8"?>
<!-- Generator: Adobe Illustrator 18.0.0, SVG Export Plug-In . SVG Version: 6.00 Build 0)  -->
<!DOCTYPE svg PUBLIC "-//W3C//DTD SVG 1.1//EN" "http://www.w3.org/Graphics/SVG/1.1/DTD/svg11.dtd">
<svg version="1.1" xmlns="http://www.w3.org/2000/svg" xmlns:xlink="http://www.w3.org/1999/xlink" x="0px" y="0px"
	 viewBox="0 0 600 400" enable-background="new 0 0 600 400" xml:space="preserve">
<g id="Layer_1">
	<rect fill="#00CCCC" width="600" height="400"/>
</g>
<g id="Capa_2">
	<g>
		<polygon fill="#395DA1" points="399.8,345.3 300,372.1 200.2,345.3 177.1,95.6 422.9,95.6 		"/>
		<polygon fill="#729CCF" points="300,115.9 300,350.7 300.2,350.8 381,329 399.7,115.9 		"/>
		<g>
			<polygon fill="#211915" points="243.3,59 243.3,44.1 265,44.1 265,27.9 227.1,27.9 227.1,73.8 265,73.8 265,59 			"/>
			<path fill="#211915" d="M304,44.1h15.2V27.9h-37.9c0,0,0,8.2,0,16.3c5.1,5.1,7.7,7.5,15.1,14.8c-4.3,0-15.1,0-15.1,0v14.8h37.9
				V59L304,44.1z"/>
			<path fill="#211915" d="M357.8,44.1h15.2V27.9H335c0,0,0,8.2,0,16.3c5.1,5.1,7.7,7.5,15.1,14.8c-4.3,0-15.1,0-15.1,0v14.8h37.9
				V59L357.8,44.1z"/>
		</g>
		<g>
			<polygon fill="#FFFFFF" points="299.9,178.3 228.4,208 230.8,237.5 299.9,208 373.4,176.5 376.5,146.4 			"/>
			<linearGradient id="SVGID_1_" gradientUnits="userSpaceOnUse" x1="264.178" y1="237.5053" x2="264.178" y2="178.2764">
				<stop  offset="0.3865" style="stop-color:#D7D8DC;stop-opacity:0"/>
				<stop  offset="1" style="stop-color:#D7D8DC"/>
			</linearGradient>
			<polygon fill="url(#SVGID_1_)" points="228.4,208 230.8,237.5 299.9,208 299.9,178.3 			"/>
			<linearGradient id="SVGID_2_" gradientUnits="userSpaceOnUse" x1="338.1811" y1="207.9641" x2="338.1811" y2="146.3987">
				<stop  offset="0.3865" style="stop-color:#D7D8DC;stop-opacity:0"/>
				<stop  offset="1" style="stop-color:#D7D8DC"/>
			</linearGradient>
			<polygon fill="url(#SVGID_2_)" points="376.5,146.4 299.9,178.3 299.9,208 373.4,176.5 			"/>
			<linearGradient id="SVGID_3_" gradientUnits="userSpaceOnUse" x1="228.5564" y1="263.9226" x2="370.809" y2="263.9226">
				<stop  offset="0" style="stop-color:#EFF0EE"/>
				<stop  offset="1" style="stop-color:#FFFFFF"/>
			</linearGradient>
			<polygon fill="url(#SVGID_3_)" points="228.6,208 230.9,237.5 336.9,237.8 334.6,277.1 299.7,287 266.2,278.5 264.1,254.1 
				233,254.1 237,301.2 300,319.8 362.7,301.5 370.8,208 			"/>
			<g opacity="5.000000e-002">
				<polygon fill="#211915" points="299.9,208 228.4,208 230.8,237.5 299.9,237.7 				"/>
				<polygon fill="#211915" points="299.9,286.9 299.6,287 266,278.5 264,254.1 232.8,254.1 236.9,301.2 299.9,319.8 				"/>
			</g>
			<linearGradient id="SVGID_4_" gradientUnits="userSpaceOnUse" x1="222.0115" y1="161.4701" x2="376.4527" y2="161.4701">
				<stop  offset="0" style="stop-color:#EFF0EE"/>
				<stop  offset="1" style="stop-color:#FFFFFF"/>
			</linearGradient>
			<polygon fill="url(#SVGID_4_)" points="222,146.4 376.5,146.4 373.4,176.5 225.7,176.5 			"/>
			<polygon opacity="5.000000e-002" fill="#211915" points="299.9,146.4 222,146.4 225.7,176.5 299.9,176.5 			"/>
		</g>
	</g>
</g>
</svg>
