<?xml version="1.0" encoding="utf-8"?>
<!-- Generator: Adobe Illustrator 18.0.0, SVG Export Plug-In . SVG Version: 6.00 Build 0)  -->
<!DOCTYPE svg PUBLIC "-//W3C//DTD SVG 1.1//EN" "http://www.w3.org/Graphics/SVG/1.1/DTD/svg11.dtd">
<svg version="1.1" id="Layer_1" xmlns="http://www.w3.org/2000/svg" xmlns:xlink="http://www.w3.org/1999/xlink" x="0px" y="0px"
	 viewBox="0 0 600 400" enable-background="new 0 0 600 400" xml:space="preserve">
<rect fill="#0091BE" width="600" height="400"/>
<g>
	<polygon fill="#E34F26" points="199.3,311.7 176.9,60.3 423.1,60.3 400.7,311.8 299.9,339.7 	"/>
	<polygon fill="#EE652A" points="300,80.9 300,318.3 381.4,295.8 400.6,80.9 	"/>
	<polygon fill="#FFFFFF" points="222.8,111.7 231.1,205 338,205 334.4,245 300,254.3 265.6,245 263.3,219.3 232.4,219.3 
		236.8,268.8 300,286.3 363.2,268.8 371.7,174.1 259.3,174.1 256.5,142.5 374.4,142.5 374.5,142.5 377.2,111.7 	"/>
	<g>
		<polygon fill="#EBEBEB" points="300,111.7 222.8,111.7 231.1,205 300,205 300,174.1 259.3,174.1 256.5,142.5 300,142.5 		"/>
		<polygon fill="#EBEBEB" points="300,254.2 300,254.3 265.6,245 263.3,219.3 232.4,219.3 236.8,268.8 300,286.3 300,286.3 		"/>
	</g>
</g>
</svg>
