<?xml version="1.0" encoding="utf-8"?>
<!-- Generator: Adobe Illustrator 17.0.0, SVG Export Plug-In . SVG Version: 6.00 Build 0)  -->
<!DOCTYPE svg PUBLIC "-//W3C//DTD SVG 1.1//EN" "http://www.w3.org/Graphics/SVG/1.1/DTD/svg11.dtd">
<svg version="1.1" id="Capa_1" xmlns="http://www.w3.org/2000/svg" xmlns:xlink="http://www.w3.org/1999/xlink" x="0px" y="0px"
	 width="1440.074px" height="900.046px" viewBox="0 0 1440.074 900.046" enable-background="new 0 0 1440.074 900.046"
	 xml:space="preserve">
<g>
	<polyline fill="#E44D26" points="955.229,100.471 928.215,83.005 493.365,83.005 472.018,100.471 514.711,560.394 519.986,581.524 
		529.508,588.326 543.792,594.447 558.076,598.528 573.72,605.33 590.044,609.411 611.81,614.173 638.336,619.614 660.782,626.416 
		682.548,631.177 708.395,637.299 732.881,633.898 745.805,631.857 759.408,631.857 770.291,625.736 785.255,622.335 
		813.822,617.573 823.345,611.452 845.11,606.01 862.795,599.209 885.921,592.407 899.525,584.245 909.727,567.92 	"/>
	<polygon fill="#FFFFFF" points="776.191,448.524 700.188,473.663 766.642,519.655 806.593,504.065 	"/>
	<g>
		<g>
			<polygon fill="#FFFFFF" points="566.788,255.247 849.367,247.307 872.326,235.315 867.028,194.316 820.226,183.72 
				566.788,192.55 			"/>
			<polygon fill="#FFFFFF" points="566.788,283.505 566.788,246.824 655.383,232.593 627.719,283.505 634.784,298.517 
				647.182,304.699 650.679,311.763 679.82,317.062 713.623,317.062 720.037,317.062 743.4,317.062 790.202,317.062 
				831.706,317.062 849.367,324.126 849.367,331.19 849.367,345.319 849.367,354.15 849.367,367.396 849.367,392.121 849.367,408.9 
				777.839,374.46 608.292,370.928 586.216,363.157 			"/>
			<polygon fill="#FFFFFF" points="763.71,457.468 788.436,408.9 787.197,356.119 851.363,363.157 844.747,470.714 837.887,491.024 
				791.085,511.334 			"/>
			<polygon fill="#FFFFFF" points="620.655,402.718 591.514,408.9 584.449,432.206 584.449,455.702 584.449,481.31 602.552,489.258 
				610.058,495.439 627.719,511.334 643.614,511.334 662.159,523.697 685.118,527.229 708.078,534.294 720.037,534.294 
				738.346,530.762 747.815,528.995 755.763,523.697 763.71,519.282 781.371,516.633 708.075,471.932 682.91,456.585 
				666.644,445.448 647.182,423.912 			"/>
		</g>
		<g>
			<g>
				<defs>
					<rect id="SVGID_1_" x="459.604" y="70.708" width="520.866" height="584.897"/>
				</defs>
				<clipPath id="SVGID_2_">
					<use xlink:href="#SVGID_1_"  overflow="visible"/>
				</clipPath>
				<path clip-path="url(#SVGID_2_)" d="M812.481,75.464H559.96c-35.248,0-91.875-12.329-100.294,33.909
					c-0.185,0.784,0.123,1.262,0.185,1.924c12.976,146.702,26.028,293.049,39.08,439.458c5.772,64.569,92.291,66.924,142.545,80.869
					c74.928,20.795,125.661,4.926,199.743-15.638c57.058-15.807,87.365-24.104,92.891-86.395
					c8.004-89.043,15.931-178.086,23.873-267.19c3.478-38.911,6.973-77.868,10.466-116.764c0.954-10.713,9.189-44.791,0-54.781
					C938.142,57.732,851.746,75.464,812.481,75.464L812.481,75.464z M484.554,116.468c-0.123-1.554-0.246-3.063-0.415-4.633
					c-0.062-0.769-0.124-1.555-0.185-2.278c-0.123-1.262,1.508-8.065,7.342-11.605c3.125-1.924,7.142-3.54,11.898-4.864
					c6.556-1.924,8.111,1.262,3.371,6.065c-4.279,4.387-8.604,8.774-12.929,13.237C488.818,117.253,484.801,119.054,484.554,116.468
					L484.554,116.468z M501.023,133.245c-1.678,1.678-3.355,3.433-5.049,5.172c-4.74,4.802-4.802,4.756-0.061-0.061
					c1.693-1.739,3.371-3.494,5.064-5.172C505.718,128.32,505.78,128.32,501.023,133.245L501.023,133.245z M933.925,264.386
					c-7.927,89.104-15.87,178.147-23.858,267.251c-2.355,26.875-3.494,49.424-34.817,58.074
					c-42.928,11.914-85.856,23.812-128.785,35.725c-3.017,0.831-6.018,1.493-9.02,1.97c-5.049,0.785-12.745,0.062-17.131-1.139
					c-4.402-1.262-8.85-1.262-10.051-0.123c-1.139,1.216-7.572,1.631-14.314,0.554c-3.355-0.6-6.726-1.216-10.097-1.986
					c-6.665-1.447-10.575-4.387-8.836-6.265c1.739-1.862-2.17-4.802-8.712-6.664l-4.695-1.262
					c-6.557-1.801-13.283-1.924-15.099-0.185c-1.739,1.678-5.88,2.294-9.189,1.324c-1.986-0.601-3.972-1.201-6.018-1.74
					c-4.449-1.2-10.575-2.524-17.609-3.971c-6.618-1.324-10.343-4.156-8.296-6.249c2.093-2.048,1.37-4.449-1.57-5.233l-5.357-1.508
					c-0.893-0.231-1.8-0.539-2.693-0.893c-1.447-0.6-4.695,0.708-7.28,3.063c-2.524,2.34-9.99,2.94-16.47,0.955
					c-6.742-2.048-13.299-4.326-19.302-6.973c-6.203-2.77-7.096-9.558-2.355-14.422l12.744-12.868
					c4.756-4.818,8.481-10.051,8.358-11.606c-0.108-1.569-4.264,0.955-9.251,5.588c-5.648,5.233-11.313,10.466-16.962,15.638
					c-4.987,4.633-12.313,6.065-15.561,2.401c-3.248-3.663-0.908-11.005,4.14-15.639c8.774-7.989,17.624-15.992,26.398-23.981
					c4.987-4.633,8.712-12.576,8.234-17.793c-0.477-5.233-4.864-5.726-9.866-1.093c-9.435,8.836-18.871,17.685-28.306,26.459
					c-5.003,4.633-9.558,2.94-10.174-3.848l-2.571-28.984c-0.616-6.788-0.247-13.052,0.769-14.006
					c0.662-0.601,1.262-1.201,1.862-1.801c11.313-11.606,22.488-23.15,33.739-34.694c4.741-4.88,8.235-12.452,7.881-16.901
					c-0.431-4.448-4.633-4.14-9.45,0.6c-9.744,9.682-19.302,19.179-28.737,28.568c-4.802,4.802-9.205,3.186-9.805-3.617
					c-0.108-1.324-0.231-2.693-0.354-4.017c-0.6-6.803,2.816-16.177,7.634-20.995c4.926-4.864,9.866-9.728,14.792-14.668
					c1.447-1.555,2.878-3.187,4.325-4.741c2.401-2.586,0.369-0.908-4.51,3.786c-5.234,5.049-10.159,9.851-14.607,14.13
					c-4.864,4.679-9.143,5.11-9.559,0.893c-0.369-4.141,3.31-11.483,8.112-16.223c9.558-9.451,19.117-18.824,28.629-28.26
					c4.865-4.756,8.42-12.514,7.989-17.254c-0.416-4.695-4.572-4.633-9.312,0.292c-9.62,9.928-19.24,19.84-28.86,29.768
					c-4.695,4.864-8.959,4.325-9.451-1.262c-0.477-5.603,2.956-14.069,7.696-18.948c9.805-10.097,19.425-20.024,28.814-29.691
					c4.74-4.879,8.112-14.13,7.511-20.749c-0.6-6.618-4.987-8.111-9.804-3.309c-9.497,9.328-19.056,18.763-28.614,28.199
					c-4.88,4.756-9.266,3.125-9.928-3.602c-0.293-3.679-0.601-7.342-0.955-11.006c-0.6-6.742,2.878-16.054,7.804-20.748
					c9.512-9.143,19.009-18.332,28.506-27.537c4.926-4.741,8.666-10.636,8.48-13.222c-0.246-2.524-4.325-0.661-9.143,4.141
					c-9.558,9.682-19.117,19.363-28.737,29.045c-4.756,4.864-9.143,3.309-9.743-3.494c-0.246-2.34-0.416-4.679-0.662-6.973
					c-0.6-6.788,2.771-16.223,7.511-21.041c9.682-9.851,19.24-19.594,28.799-29.337c4.817-4.818,8.357-12.206,8.004-16.423
					c-0.416-4.203-4.695-3.848-9.559,0.908c-8.234,8.004-17.854,17.316-28.567,27.66c-4.864,4.694-4.926,4.633-0.108-0.185
					c9.79-9.789,19.656-19.471,28.614-28.198c4.864-4.74,4.802-4.802-0.123-0.123c-9.251,8.912-18.763,18.101-28.491,27.537
					c-4.879,4.694-9.266,3.617-9.805-2.586c-0.539-6.126,2.94-14.961,7.819-19.656c9.435-9.204,18.932-18.455,28.613-27.829
					c4.88-4.756,8.419-12.699,8.004-17.808c-0.492-5.049-4.756-5.28-9.558-0.477c-9.574,9.435-19.133,18.947-28.691,28.444
					c-4.802,4.803-9.25,3.186-9.851-3.617c-0.062-0.893-0.123-1.863-0.246-2.755c-0.6-6.803,2.894-16.115,7.819-20.81
					c9.682-9.25,19.117-18.393,28.491-27.351c4.941-4.694,8.912-8.728,8.85-8.958c0-0.246-4.033,3.355-8.912,8.05
					c-9.25,8.835-18.747,17.977-28.491,27.352c-4.925,4.694-9.327,3.971-9.805-1.616c-0.477-5.649,3.063-14.007,8.004-18.763
					c9.558-9.189,19.055-18.27,28.49-27.29c4.88-4.695,8.789-9.205,8.728-10.097c-0.062-0.846-4.033,2.401-8.789,7.204
					c-9.312,9.512-18.932,19.24-28.799,29.352c-4.74,4.864-9.081,3.294-9.681-3.494c-0.601-6.311-1.139-12.622-1.678-18.932
					c-0.6-6.742,2.77-16.177,7.511-21.056c10.159-10.389,20.333-20.733,30.492-31.076c4.74-4.88,9.558-12.083,12.021-15.269
					s10.821-5.234,17.67-5.418c52.979-1.324,118.088,5.295,133.911,5.295h14.822h224.477
					C965.263,92.303,935.74,244.053,933.925,264.386L933.925,264.386z"/>
			</g>
		</g>
	</g>
	<path d="M870.863,410.964c12.56-13.469,25.136-26.875,37.449-40.111c4.633-4.988,8.789-13.515,9.266-19.117
		c0.477-5.526-3.002-6.188-7.82-1.385c-12.56,12.39-25.197,24.904-37.818,37.464c-4.864,4.818-8.173,3.186-7.096-3.54
		c2.894-16.962,7.881-38.85,7.096-55.627c-0.293-6.788-0.847-13.406,0.723-14.853c1.508-1.493,2.047-2.586,1.2-2.586
		c-0.908,0-2.401,0.723-3.371,1.632c-0.892,0.908-4.018-3.91-10.036-7.096c-12.621-6.619-33.493-2.709-46.422-2.709h-103.65
		c-4.263,0-8.542-0.723-9.435-1.554c-0.97-0.908-2.355-1.031-3.309-0.062c-0.97,0.892-4.756,1.616-8.542,1.616h-6.788
		c-6.804,0-12.576-0.954-17.501-2.585c-6.434-2.094-6.85-9.62-2.047-14.361c6.972-6.865,13.899-13.714,20.81-20.502
		c4.864-4.818,14.299-8.419,21.103-7.942c41.604,2.894,118.318,10.698,153.982-3.602c6.31-2.524,11.175-5.957,11.775-5.957
		c0.6,0,5.11-3.786,10.112-8.419c6.126-5.71,12.313-11.482,18.455-17.193l19.178-17.793l6.188-6.326
		c3.433-3.417,3.187-8.835-1.385-10.097c-4.617-1.263-12.498,2.232-17.486,6.865c-5.479,5.049-10.943,10.158-16.361,15.207
		c-4.987,4.633-8.05,3.186-7.573-3.248c0.416-6.495,1.739-13.715,4.387-16.177c2.647-2.524,1.862-4.51-1.862-4.51
		s-8.419-2.34-11.42-3.91c-1.678-0.831-3.602-1.493-5.896-1.801c-49.054-6.911-100.525-2.462-150.072-2.462
		c-18.332,0-169.728-14.315-166.665,19.901c3.125,34.925,6.188,69.865,9.312,104.789c2.956,32.77-1.739,68.002,36.202,77.992
		c35.956,9.497,84.348,0.661,121.936,0.661c16.346,0,62.168-9.204,59.336,21.949c-3.956,44.606-35.171,59.814-66.14,54.349
		c-6.664-1.2-8.958-5.895-5.341-9.327c3.602-3.417,6.433-6.372,6.31-6.664c-0.184-0.246-3.309,2.462-6.972,6.064
		c-3.725,3.617-11.96,4.756-17.916,1.508c-2.893-1.57-5.71-3.371-8.419-5.295c-5.526-3.971-5.418-11.606-0.416-16.223
		c3.91-3.617,7.804-7.219,11.652-10.836c5.002-4.617,7.219-10.451,4.279-11.959c-1.801-0.954-3.725-1.447-5.71-1.447h-3.679
		c-2.032,0-7.696,3.725-12.683,8.358c-1.323,1.262-2.647,2.463-4.033,3.725c-4.987,4.633-11.236,5.171-13.576,0.97
		c-2.293-4.202-2.478-8.959-1.031-10.344c1.447-1.324,1.031-2.216-0.601-1.077c-1.616,1.077-5.171-2.955-11.174-6.142
		c-14.684-7.573-42.159-6.495-51.717-1.986c-30.245,14.315-16.839,56.288-14.546,82.255c4.032,45.283,83.394,50.271,115.132,59.044
		c31.277,8.604,53.164-1.986,84.779-10.698c2.171-0.6,4.756-1.262,7.635-1.862c4.218-0.908,5.357,0.77,2.586,3.724
		c-2.755,2.878-4.264,5.11-3.356,4.802c0.954-0.231,4.017-2.817,6.85-5.648c2.878-2.878,10.513-6.311,17.07-7.82
		c6.618-1.493,9.805-0.954,7.341,1.57c-2.462,2.524,0.832,3.063,7.388,1.262l10.528-2.94c6.556-1.816,15.685-7.219,20.441-12.098
		c15.685-16.162,32.108-32.939,48.762-50.07c4.756-4.88,9.081-14.314,9.682-21.118l0.185-1.555c0.6-6.803-2.832-8.357-7.588-3.555
		c-11.482,11.544-22.718,22.919-33.847,34.094c-4.802,4.818-7.943,4.217-7.45-1.447c0.539-5.587,4.571-14.114,9.373-18.932
		c11.544-11.728,22.857-23.088,33.74-34.093c4.802-4.802,8.835-10.944,9.066-13.652c0.246-2.694-0.6-3.725-1.986-2.278
		c-0.769,0.846-1.616,1.739-2.401,2.585c-13.098,13.884-25.797,27.352-38.295,40.65c-4.694,4.926-8.296,3.417-8.296-3.371
		c0-1.262,0.062-2.462,0.062-3.663C862.444,425.509,866.23,415.951,870.863,410.964L870.863,410.964z M657.422,268.172l-2.77,2.878
		c-4.756,4.88-8.604,2.771-4.218-2.401c1.262-1.446,2.77-2.832,4.51-4.094C660.485,260.645,662.163,263.293,657.422,268.172
		L657.422,268.172z M833.938,456.232c-3.602,40.958-12.376,41.728-51.641,52.61c-60.013,16.654-61.753,18.578-119.596,2.586
		c-35.894-9.974-62.522-23.626-65.955-62.292c-1.924-21.995,17.378-67.632,35.956-17.547c14.669,39.496,51.656,44.375,90.182,44.375
		c33.262,0.062,72.819-16.423,76.067-53.272c2.647-28.922,3.663-57.967-33.786-57.967h-114.67
		c-76.961,0-65.232-44.067-70.588-104.081c-2.339-26.813-19.117-65.647,16.716-65.647h205.099c10.636,0,55.965-4.34,54.765,9.189
		c-0.893,10.405-1.862,20.81-2.817,31.215c-3.079,34.324-221.153-37.587-234.975,38.419
		c-12.329,67.694,110.33,46.053,147.301,46.053c13.176,0,80.993-9.62,79.192,10.282
		C841.465,372.176,837.724,414.211,833.938,456.232L833.938,456.232z"/>
	<path d="M916.193,246.823c0.37-0.061,3.125-2.524,6.188-5.525c3.078-3.017,5.602-5.664,5.602-5.957
		c0.062-0.308-2.709,2.155-6.203,5.526C918.301,244.238,915.839,246.885,916.193,246.823L916.193,246.823z"/>
	<path d="M913.253,247.3c1.016-0.123,4.741-3.125,8.358-6.618c3.601-3.478,6.542-7.034,6.603-7.927
		c0.062-0.908-3.663,2.109-8.358,6.619C915.177,243.868,912.16,247.485,913.253,247.3L913.253,247.3z"/>
	<path d="M627.719,283.505l38.925-31.064L627.719,283.505z"/>
	<path fill="#466DB3" stroke="#1D1D1B" stroke-width="7" stroke-miterlimit="10" d="M595.836,750.29
		c0.26,1.98,0.392,3.961,0.392,5.941c0,10.965-4.688,22.78-14.06,35.461c-7.529,10.166-16.774,19.278-27.734,27.331
		c-10.039,7.264-16.84,10.629-20.403,10.105c-3.961-0.529-10.96-3.467-20.999-8.817c-10.034-5.35-15.45-9.01-16.239-10.996
		c-0.27-0.524-0.397-1.12-0.397-1.782c0-0.789,0.229-1.812,0.692-3.07c0.463-1.252,0.692-2.209,0.692-2.871V673.237
		c0-2.11,2.902-3.169,8.715-3.169c2.642,0,4.953,0.265,6.933,0.792c6.205-3.963,14.03-7.493,23.473-10.599
		c9.443-3.1,17.532-4.655,24.267-4.655c3.961,0,7.03,0.565,9.209,1.685c2.179,1.122,4.195,3.07,6.043,5.844
		c2.377,3.831,4.027,6.208,4.953,7.129c0.265,0.267,2.444,2.049,6.536,5.35c2.377,1.98,3.894,4.093,4.556,6.338
		c0.524,1.586,0.794,3.304,0.794,5.152c0,10.433-6.933,21.788-20.8,34.069C586.591,731.868,594.38,741.575,595.836,750.29z
		 M561.169,685.915c-0.265-0.527-0.993-0.794-2.179-0.794c-3.039,0-7.794,1.586-14.264,4.755s-10.828,6.208-13.073,9.112v20.602
		c8.45-6.735,15.75-13.6,21.89-20.602C559.682,691.99,562.223,687.63,561.169,685.915z M568.301,744.543
		c-3.436,0.137-9.245,1.787-17.43,4.953c-8.853,3.569-15.257,7.066-19.217,10.502v36.841c8.583-2.377,17.038-9.636,25.356-21.788
		C565.328,762.905,569.095,752.734,568.301,744.543z"/>
	<path fill="#466DB3" stroke="#1D1D1B" stroke-width="7" stroke-miterlimit="10" d="M700.42,798.427
		c-1.583,6.205-4.093,9.967-7.524,11.286c-1.059,0.397-2.479,0.463-4.261,0.199c-1.782-0.26-3.07-0.199-3.864,0.199l-29.319,12.284
		c-0.921,0.392-1.878,1.517-2.871,3.365c-0.988,1.848-1.95,2.902-2.871,3.171c-2.907,1.054-9.046,0.066-18.423-2.973
		c-9.377-3.039-15.053-5.875-17.033-8.517c-1.456-2.113-1.919-5.416-1.39-9.906c0.265-2.107,0.397-3.762,0.397-4.953v-133.11
		c-0.265-1.318-0.794-2.441-1.583-3.367c-0.794-0.921-1.191-1.716-1.191-2.377c0.265-2.507,2.576-4.358,6.933-5.546
		c2.774-0.659,8.781,0.331,18.026,2.973c10.431,3.039,15.715,6.605,15.847,10.695c0,1.059-0.728,2.645-2.179,4.755
		c-1.456,2.113-2.179,3.698-2.179,4.755V790.9l20.602-8.914c1.186-1.054,3.431-2.245,6.735-3.568
		c1.848-0.26,6.804,2.545,14.857,8.42C697.182,792.716,700.949,796.579,700.42,798.427z"/>
	<path fill="#466DB3" stroke="#1D1D1B" stroke-width="7" stroke-miterlimit="10" d="M771.535,827.54
		c-2.774,0.265-5.88-0.097-9.311-1.089c-3.436-0.988-6.801-2.011-10.1-3.07c-3.966-1.059-10.171-2.968-18.621-5.742
		c-10.568-4.622-18.555-13.734-23.967-27.337c-4.755-12.014-7.132-26.542-7.132-43.576c0-13.867,2.377-30.042,7.132-48.531
		c6.465-24.827,14.854-37.24,25.153-37.24c0.926,0,2.214,0.232,3.864,0.692c1.649,0.466,2.937,0.761,3.864,0.891
		c9.769-2.772,16.046-4.159,18.82-4.159c1.318,0,2.637,0.069,3.961,0.199c15.847,1.98,28.324,11.884,37.436,29.711
		c8.186,16.114,12.284,35.326,12.284,57.643c0,21.131-3.701,39.289-11.092,54.475C795.899,816.911,785.138,825.957,771.535,827.54z
		 M767.972,682.349c-2.907-0.794-5.778,3.103-8.618,11.685c-2.841,8.588-5.712,12.877-8.618,12.877
		c-0.662,0-1.619-0.361-2.871-1.089c-1.257-0.725-2.276-1.156-3.07-1.288c-4.49,9.904-6.735,24.035-6.735,42.387
		c0,14.396,1.517,26.746,4.556,37.044c3.431,11.489,8.186,17.827,14.264,19.013c7.127,1.324,12.874-6.007,17.232-21.986
		c3.828-13.994,5.742-30.635,5.742-49.918c0-13.07-0.988-24.03-2.968-32.878C774.768,688.687,771.8,683.408,767.972,682.349z"/>
	<path fill="#466DB3" stroke="#1D1D1B" stroke-width="7" stroke-miterlimit="10" d="M943.674,754.052
		c-0.397,5.284-2.708,8.654-6.933,10.105c-0.794,0.132-1.721-0.102-2.774-0.692c-1.059-0.596-1.914-0.896-2.576-0.896
		c-0.789,0-1.654,0.199-2.576,0.596c-5.147,19.68-9.178,32.885-12.08,39.615c-5.284,12.548-12.151,20.734-20.602,24.562
		c-2.25,1.059-4.556,1.588-6.933,1.588c-2.377,0-8.257-1.721-17.629-5.152c-3.569-0.927-9.183-2.841-16.84-5.742
		c-7.661-3.696-13.602-12.217-17.827-25.555c-3.833-12.146-5.742-26.609-5.742-43.382c0-21.788,3.034-41.198,9.112-58.234
		c6.597-18.619,15.318-29.049,26.145-31.297c0.921-0.13,1.98-0.199,3.171-0.199c6.597,0,14.656,2.115,24.165,6.34
		c10.166,4.49,17.033,9.443,20.602,14.854c2.902,4.358,4.816,9.906,5.742,16.641c1.191,7.659,1.914,11.818,2.179,12.477
		c0.397,2.247,0.921,4.953,1.583,8.122c0.132,1.718-0.524,3.734-1.98,6.04c-1.451,2.311-2.841,3.731-4.159,4.261
		c-1.716,0.662-6.867-0.3-15.45-2.871c-8.588-2.576-13.734-4.587-15.45-6.043c-2.377-1.586-3.37-4.686-2.973-9.311
		c0-0.659,0.331-1.484,0.993-2.477c0.657-0.99,0.988-1.881,0.988-2.673c0-9.374-1.059-14.065-3.166-14.065
		c-4.49-0.13-8.456,7.399-11.887,22.582c-3.171,14.261-4.755,29.844-4.755,46.75c0,25.092,3.497,39.483,10.502,43.178
		c2.108,1.059,4.979-2.576,8.613-10.894c3.63-8.318,5.778-16.107,6.44-23.371c-2.113-1.588-6.139-3.635-12.085-6.144
		c-4.755-1.98-7.33-3.696-7.722-5.147c-0.529-1.98,0.127-4.785,1.98-8.42c1.848-3.63,3.792-5.976,5.844-7.03
		c2.046-1.059,4.918-1.654,8.613-1.787c5.019,0,8.053-0.127,9.112-0.392c2.245-0.397,5.875-1.517,10.894-3.37
		c4.093-1.583,7.198-2.377,9.311-2.377c0.794,0,1.517,0.066,2.179,0.199c3.299,0.662,8.155,3.635,14.559,8.914
		C940.666,748.641,943.802,752.205,943.674,754.052z"/>
</g>
</svg>
